<svg xmlns="http://www.w3.org/2000/svg" viewBox="0 0 64 64" width="64" height="64" role="img">
  <title>Bunnirocks favicon</title>
  <desc>The Bunnirocks rabbit-and-test-tube mark in white on a deep teal rounded tile.</desc>

  <rect x="0" y="0" width="64" height="64" rx="14" fill="#0D5C63"/>

  <g transform="translate(8.25,8.75) scale(0.2375)">
    <ellipse cx="100" cy="130" rx="48" ry="44" fill="#FFFFFF"/>
    <g transform="translate(84,20) rotate(-14 0 78)">
      <path d="M -13 38 L -13 65 A 13 13 0 0 0 13 65 L 13 38 Z" fill="#E63946"/>
      <rect x="-13" y="0" width="26" height="78" rx="13" fill="none" stroke="#FFFFFF" stroke-width="7"/>
    </g>
    <g transform="translate(116,20) rotate(14 0 78)">
      <path d="M -13 38 L -13 65 A 13 13 0 0 0 13 65 L 13 38 Z" fill="#E63946"/>
      <rect x="-13" y="0" width="26" height="78" rx="13" fill="none" stroke="#FFFFFF" stroke-width="7"/>
    </g>
    <path d="M 100 140 C 100 140 107.5 149.5 107.5 152 A 7.5 7.5 0 1 1 92.5 152 C 92.5 149.5 100 140 100 140 Z" fill="#E63946"/>
  </g>
</svg>
